<?xml version="1.0" encoding="UTF-8"?>
<svg id="Layer_1" xmlns="http://www.w3.org/2000/svg" version="1.1" viewBox="0 0 1775.83 878.13">
  <!-- Generator: Adobe Illustrator 30.5.0, SVG Export Plug-In . SVG Version: 2.1.4 Build 167)  -->
  <defs>
    <style>
      .st0 {
        fill: #d12d2a;
      }

      .st1 {
        fill: #fff;
      }

      .st2 {
        fill: #8b1212;
      }

      .st3 {
        fill: #1f562b;
      }

      .st4 {
        fill: #4b963d;
      }
    </style>
  </defs>
  <g>
    <path class="st3" d="M1652.65,673.38c13.69,13.5,31.43,30.37,39.08,50.89,11.71,31.37,7.44,66.25-7.61,95.41-30.4,58.9-93.4,68.23-154.64,45.94-15.53-5.65-30.38-15.18-42.89-25.95-14.99-12.91-23.35-29.35-32.57-48.71-10.34,18.86-26.55,30.96-48.18,29.85-44.38-2.28-89.35-6.86-130.68-22.08-24.86-9.15-37.86-35.48-36.4-60.83,2.81-48.98,11.13-95.1,20.37-143.03,6.48-33.63,13.22-65.53,23.97-97.69,8.37-25.01,30-40.73,57.48-38.41,41.08,3.46,81.5,11.85,121.07,23.43,17.68,5.17,29.57,19.7,33.18,36.85,3.47,16.48.76,33.69-7.66,47.54-11.89,19.55-32.46,25.51-53.92,20.25l-53.84-13.18c-1.65,4.23-2.99,9.53-3.63,13.45l42.09,7.14c28.47,4.83,45.49,42.72,29.8,77.16-9.71,21.32-32.53,31.73-55.26,26.35l-36.09-8.53-1.8,18.3,55.51,4.94c20.08.69,35.53,11.31,45.36,29.13,13.27-33,42.37-44.62,77.4-33.4-33.91-30.96-47.51-73.18-33.7-117.08,12.47-39.66,44.36-68.99,87.43-72.88,43.28-3.91,88.5,11.08,118.39,42.25,21.44,22.36,30.04,52.32,21.05,81.22-4.84,15.57-17.75,28.43-33.44,32.1-12.59,2.94-25.58.48-38.22-1.83l-1.67,1.42ZM1392.3,673.28c8.24,1.99,20.18,2.23,26.91-2.28,16.88-11.31,21.79-35.86,10.36-52.36-12.81-18.47-48.32-12.39-75.13-23.64l7.39-35.85c1.37-6.63,11.21-10.92,18.4-9.27l57.03,13.16c10.72,2.47,24.04,2.84,31.21-6.85,8.15-11.02,10.91-26.84,7.85-40.31-2.49-10.94-12.22-19.43-22.73-21.74l-73.85-16.26c-35.43-7.8-67.47-12.16-78.01,20.22-12.91,39.64-20.51,80.05-28.01,121.57-6.94,38.42-13.42,75.21-15.83,114.2-1.32,21.29,11.17,39.13,32.26,44.74,35.07,9.34,71.32,15,107.69,18.59,22.48,2.22,39.79-9.6,41.58-32.23.67-8.54,1.36-20.5-4.92-27.15-10.13-10.73-24.9-11.77-38.69-13.18l-45.62-4.65c-5.31-.54-11.51-4.82-16.09-8.59l6.02-39.47c.96-6.27,7.93-9.37,13.87-7.93l38.31,9.27ZM1592.11,852c31.17-.53,59.9-16.67,74.03-43.83,10.81-20.78,16.41-43.77,12.6-66.7-8.08-48.64-55.46-67.16-81.31-100.34-8.83-11.33-7.87-28.29,2.41-37.46,5.71-5.09,15.9-4.98,22.72-1.86,19.09,8.73,8.95,41.43,47.13,49.23,17.86,3.65,35.18-4.91,39.98-24.09,4.35-17.37-.56-36.38-11.6-51.01-16.98-22.49-41.58-34.57-68.61-41.58-27.96-7.25-56.93-4.87-80.52,12.42-40.8,29.9-49.45,99.4-10.35,135.3l45.6,41.87c13.99,12.85,22.38,32.16,11.04,49.11-5.63,8.42-16.95,10.47-26.42,7.46-6.74-2.14-15.52-8.74-17.68-17.2l-5.28-20.67c-2.71-10.63-8.94-15.59-18.24-20.39-20.45-10.54-45.6-3.68-53.47,19.77-8.27,24.66.23,50.94,17.93,70.21,24.86,27.06,63.19,40.42,100.05,39.8ZM1621.15,645.34l3.36,2.56,1.5-.91-.69-1.47-8.57-19.47c-.47-1.07-4.27-2.65-5.43-2.61-4.68.14-1.89,12.98,9.82,21.91ZM1627.14,648.76l-.02.32c.09,4.02.07,2.82.02-.32ZM1652.52,670.58l-2.76-.06,2.76.06ZM1560.66,733.1l7.87,29.09c.87,3.23,7.15,6.86,10.19,5.67,9.08-3.56-1.15-22.97-18.06-34.76Z"/>
    <path class="st3" d="M320.15,727.86l-.93-3.84c-.23-.97-3.22-2.25-3-1.28l1.07,4.85c3.93,23.88,1.21,47.51-10.67,68.77-11.92,20.2-27.59,36.15-48.16,47.97-49.13,28.25-137.72,55.92-171.71,6.95-4.51-6.5-10.59-15.86-13.17-23.64-19.68-59.29-35.06-117.64-48.82-177.9l-5.31-31.87c-4.61-27.67,9.16-54.7,33.8-69.18,37.33-21.93,80.95-35.49,124.29-34.1,43.68,1.4,76.62,30.64,86.61,71.22,5.61,22.8,5.11,44.43-5.76,66.57,19.06,8.39,33.81,20.19,44.14,37.16l2.25-.94c-8.62-31.29-15.04-63.07-19.09-96.33l-5.69-52.48c-1.85-17.03.32-36.81,11.37-51.04,20.3-26.17,62.27-31.32,87.84-10.13,12.44,10.31,17.25,27.84,18.54,43.39,3.22,38.8,12.33,167.09,39.3,162.61,16.01-2.66,11.19-48.56,6.37-74.04-6.47-34.2-16.04-67.19-25.19-100.41-9.02-32.75,7.73-59.69,38.6-69.8,31.86-10.44,62.96,2.41,73.34,36.28,16.75,54.63,27.03,111.3,30.53,169.16,3.49,57.7-14.56,118.96-67.77,144.82-36,17.5-78.33,18.84-114.44,3.57-27.39-15.98-47.08-38.19-58.34-66.36ZM377.19,508.2c-2.06-21.22-20.67-29.41-39.11-28.55-21.67,1.01-40.08,15.47-39.18,39.21,2.09,55.03,10.13,109.45,25.49,162.74,7.03,24.4,17.5,47.32,33.63,66.35,25.67,30.29,65.49,38.21,102.9,28.89,63.65-15.85,82.45-70.8,80.29-133.27-1.95-56.1-13.7-109.72-28.41-163.64-5.49-20.14-21.28-32.56-42.94-28.54-14.23,2.64-28,10.3-33.63,25.08-2.73,7.15-1.27,16.96.71,24.62l18.51,71.65c10.16,39.33,23.81,115.34-13.1,124.84-21.07,5.42-37.83-15.48-44.41-39.44-7.43-27.08-11.4-53.93-14.15-82.16l-6.59-67.77ZM272.48,804.55c21.61-19.45,30.04-46.33,26.43-74.69-4.72-36.99-31.3-65.17-69.66-70.45,9.7-13.77,17.97-28.19,19.03-45.54,1.46-23.93-7.17-49.1-23.84-65.78-32.71-32.74-89.58-19.43-131.82-3.81-34.98,12.93-61.96,34.54-53.9,73.18,13.44,64.45,29.31,127.16,50.13,189.46,10.45,31.26,29.97,49.28,63.35,46.53,42.97-3.54,88.41-20.21,120.28-48.89ZM305.72,691.18l-1.55.34c1.36,3.61,1.75,1.99,1.55-.34ZM315.16,717.94l-1,1,1,1,1-1-1-1Z"/>
    <path class="st2" d="M694.68,321.24c1.02,19.09-10.29,36.44-26.19,44.82-16.27,8.57-34.96,10.24-52.53,6.1s-32.3-17.02-34.95-35.15l-6.12-42-12.74-188.87.53-30.06c.45-25.66,17.96-46.5,42.46-55.38,67.76-24.56,170.59-23.01,204.43,45.65,22.93,46.53,15.95,110.65-23.92,145.88l26.1,34.06c8.88,11.58,17.61,21.82,24.78,34.82l5.38-109.09,7.93-109.9c2.07-28.6,22.21-50.29,50.23-56.36,59.09-12.8,138.1-6.33,179.35,40.91,40.66,46.56,29.47,134.62-23.38,171.13l27.05,45.28c7.37,12.33,14.66,24.86,16.1,39.13,3.54,35.02-22.26,63.4-56.94,64.21-25.31.59-47.98-11.3-58.23-34.59l-27.81-63.12c-1.17,36.06-.29,75.96-34.41,88.76-21.01,7.89-45.39,5.4-63.82-7.22-11.27-7.72-15.16-19.59-20.54-33.45-4.46,20.05-17.33,33.75-35.87,40.53-28.89,10.56-59.99,1.17-75.61-25.31l-33.73-57.16,2.47,46.39ZM999.43,315.81c2.62,6.03,9.14,13.44,13.52,17.26,14.42,12.57,37.02,13.06,52.27,2.06,17.9-12.92,20.22-37.19,9.01-55.21l-18.34-29.48-25.06-44.38c10.24-7.19,20.24-11.21,27.53-19.83,27.94-33,37.02-80.08,16.37-118.97-28.84-54.31-109.3-58.86-167.26-50.1-20.84,3.15-36.56,19.5-38.4,39.88l-5.72,63.08c-3.17,56.41-6.91,111.19-6.87,167.76.01,14.08,1.06,30.7,11.51,40.45,13.49,12.58,38.23,13.13,53.08,2.69,9.81-6.9,14.01-20.51,14.27-32.21l1.7-75.55c7.63-1.4,21.58-1.19,24.93,6.49l37.47,86.06ZM701.21,246l39.38,69.28c7.69,13.53,21.11,21.98,34.89,22.46,14.81.52,30.51-5.02,38.5-17.65,12.02-19,6.19-40.11-7.9-56.13-16.75-19.04-31.64-38.68-46.45-60.14,37.27-27.64,49.77-63.58,41.68-108.82-14.78-82.63-118.58-87.77-191.08-61.49-20.4,7.39-30.73,25.01-29.37,46.76l13.65,219.02,4.87,27.19c3.22,17.99,19.27,25.67,36.57,24.61,11.31-.69,22-3.22,29.48-11.05,7.22-7.55,11.34-18.51,10.31-30.25l-6.7-76.39c13.42-7.99,24.94-.1,32.15,12.59Z"/>
    <path class="st2" d="M1770.75,221.59l-30.74,63.94-34.62,65.58c-19.67,37.26-39.17,74.1-63.69,107.74-18.67,25.62-48.26,33.05-76.84,22.43-25.75-9.57-45.02-30.93-46.23-59.49l-1.37-32.24-19.61,25.71c-17.15,22.48-45.14,29.01-71.85,21.02-29.81-8.92-50.11-33.87-49.35-66.7,1.32-56.26,8.17-111.12,13.99-167.46l14.03-91.71c4.98-32.58,36.44-49.47,68.49-41.19,20.13,5.2,39.84,16.21,46.43,37.67,4.96,16.15,2.95,34.61-.3,51.3l-11.96,61.38c8.82-7.02,10.53-16.77,17.45-23.48l14.12-13.7c13.15-12.76,32.5-13.99,50.16-7.23,14.69,5.63,28.2,20.3,29.26,39.15l2.62,46.5,32.03-72.34c6.81-15.38,16.7-31.5,31.05-40.33,18.53-11.4,40.99-6.39,59.15,2.6,26.64,13.19,41.23,42.91,27.79,70.86ZM1733.76,161.31c-10.8-4.5-20.96-8.37-32.21-5.78-4.32.99-13.32,6-15.64,10l-17.7,30.48-56.09,121.8c-2.37,5.14-5.34,8.55-10.04,12.7l-.7-48.57-.12-66.19c-.02-13.54-8.01-24.41-19.19-28.86-11.79-4.69-26.29-4.23-34.4,6.9l-20.16,27.65-48.27,69.79c2.54-37.71,9.47-70.42,15.18-105.09l10.57-64.18c4.2-25.48-31.32-46.72-59.02-40.17-12.1,2.86-20.64,15.69-22.51,27.84l-13.07,84.64-14.46,149.57c-1.38,14.31-1.48,29.41,4.16,42.86,10.45,24.93,44.84,38.01,68.42,23.7,19.35-11.75,29.85-32.05,42.13-49.85l29.35-42.51-3.63,86.08c-.49,11.57,2.68,25.31,8.82,34.81,7.19,11.14,20,17.87,32.01,21.75,19.19,6.2,38.06-.8,48.79-17.21l27.72-42.43,99.6-189.74c10.53-20.06.63-41.6-19.51-49.99Z"/>
    <path class="st3" d="M1041.85,770.59l-25.88-8.5c-12.9-11.34-23.76-23.3-31.08-38.94l-26.4-56.4-1.5,51.67c-4.12,29.03-26.81,44.82-54.76,45.23-29.97.44-54.17-17.33-57.94-48.27l-1.99-35.6,6.79-178.88,6.09-51.84c5.76-28.79,30.25-46.44,58.92-44.73,21.42,1.28,39.07,11.33,50.32,29.63,16.45,26.76,28.26,54.59,41.39,83.3l.89-60.79c2.3-23.66,17.59-42.29,41.18-46.9,17.3-3.38,35.57-1.61,51.23,7.75,14.88,8.9,23.23,26.14,23.15,45.05-.34,79.53-5.21,158.14-13.86,237.37-2.08,19.01-7.17,35.76-17.77,50.41-11.94,16.49-39.34,23.54-48.76,20.45ZM1045.77,745.41c30.35,3.2,40.77-26.67,43.79-56.42,7.56-74.48,12.22-147.89,14.33-222.88.3-10.72-1.89-22.45-7.2-30.46-7.66-11.55-21.84-13.2-34.33-13.65-20.48-.73-34.25,11.86-36.96,32.2l.29,77.65-1.84,62.89-31.73-66.87-40.72-84.73c-7.74-16.1-22.04-24.11-39.51-24.88-15.1-.66-28.95,5.95-34.74,21.14-3.62,9.49-5.7,20.5-6.53,31.46-5.77,76.2-8.76,151.32-7.81,227.72.15,12.3,3.37,26.05,13.36,33.23,12.28,8.83,30.01,9.52,43.78,3.94,11.55-4.67,18.66-17.38,18.59-29.77l-.35-56.05-.54-76.97c10.39,14.34,16.16,27.99,22.57,42.96l25.19,58.74,23.18,46.66c6.98,14.05,20.63,22.32,37.19,24.07Z"/>
    <path class="st3" d="M686.31,674.66l-3.82-6.67.82,5.76c2.43,16.99,4.86,34.32,4.08,51.47-1.32,29.11-22.59,49.21-51.27,50.82-19.26,1.08-40.55-2.97-51.71-19.7-6.13-9.19-9.75-20.84-10.96-32.05-8.75-81.59-14.89-161.94-15.37-244.12-.11-19.39,5.9-37.72,20.66-49.44,30.03-23.85,72.22-15,92.06,16.55l45.1,71.74-6.37-53.12c-.67-15.72.94-32.38,12.43-44.54,21.89-23.17,61.53-26.75,85.9-5.29,12.76,11.23,18.04,28.96,18.94,45.78l10.88,201.92-2.04,42.07c-.84,17.26-7.62,34.91-21.53,46.17-19.83,16.05-50.06,17.42-70.99,2.74-12.94-9.07-22.77-21.73-30.58-35.11l-26.23-44.97ZM668.67,710.77l-8.32-70.78-5.75-58.04c5.42,5.22,9.19,9.66,12.41,15.31l60.12,105.52c15.93,27.96,39.99,46.94,67.94,33.82,8.98-4.22,18.82-15.52,19.84-28.13l2.68-32.95c-.75-75.5-4.11-150.09-11.04-224.98-2.21-23.94-19.76-36.48-42.49-34.5-20.58,1.79-37.65,15.44-35.37,38.41l13.97,140.84c-17.58-24.41-30.27-48.51-44.83-73.03l-29.05-48.91c-7.51-12.65-15.62-25.44-27.64-34.48-12.08-9.09-31.61-9.9-44.67-2.69-14.13,7.8-19.72,23.86-19.48,40.05,1.21,82.03,6.4,162.85,15.99,243.92,2.54,21.47,18.85,33.51,39.22,32.36,22.19-1.26,39.32-17.52,36.47-41.74Z"/>
    <path class="st2" d="M274.13,126.98c-.91-32.84,21.39-55.15,51.84-59.86,21.98-3.4,44.97,1.79,57.26,21.86,7.93,12.95,10.41,28.74,11.78,44.19,3.33,37.7,17.7,160.32,45.8,153.32,16.35-4.07,9.44-52.57,3.47-78.82-7.76-34.11-18.22-66.44-27.88-99.96-4.74-16.46-4.43-32.93,4.91-48.31,7.47-12.31,21.09-20.27,37.69-24.56,29.59-7.65,58.65,5.05,69.5,34.97s16.82,57.81,23.96,87.94c16.17,68.18,26.07,160.73-24,212.48-20.47,21.16-48.28,30.86-77,34.69-43.52,5.8-84.75-10.24-111.7-44.62-34.1-43.51-46.38-101.51-56.33-155.78-4.69-25.56-8.54-50.39-9.29-77.53ZM338.99,79.57c-14.02-.1-27.16,3.2-36.55,12.9-15.42,15.94-9.48,49.93-5.4,76.1,9.69,62.06,23.73,144.38,68.93,187.47,33.12,31.58,81.84,33.39,122.12,13.8,29.71-14.45,49.29-42.14,54.8-75.22,11.83-70.96-11.09-155.07-32.58-224.51-4.94-15.95-20.4-24.78-36.02-24.13-12.71.52-24.44,4.14-33.46,12.74-8.98,8.56-11.17,22.16-7.66,34.21l20.68,71.08c10.01,34.42,23.95,98.3,7.19,122.91-10.8,15.85-34.54,14.46-46.34.62-7.89-9.25-14.03-19.57-16.83-31.34l-11.88-49.82-12.57-95.19c-2.43-18.42-14.02-31.47-34.43-31.62Z"/>
    <path class="st2" d="M162.71,488.39c-42.72,7.79-73.47-7.32-89.98-47.09l-20.95-50.46-37.74-110.32c-5.47-15.99-9.14-31.96-12.43-48.89-7.38-38.06,11.03-62.07,44.11-80.27,48.72-26.82,122.39-48.57,169.21-16.15,38.07,26.36,52.24,75.03,35.44,119.29,55.4,17.05,79.48,84.4,61.23,136.92-23.32,55.01-91.73,86.54-148.9,96.97ZM297.43,364.87c7.09-51.41-22.53-100.19-77.64-102.17,28.47-35.67,21.77-76.45-4.9-109.56-16.86-14.43-37.83-22.51-61.03-20.94-42.33,2.86-82.85,17.63-116.93,42.11-16.42,11.79-22.18,30.32-17.11,49.86,16.25,62.68,37.04,122.94,60.69,183.3l16.49,33.59c9.01,18.35,28.63,26.94,49.46,24.86,57.58-5.75,138.39-40.47,150.97-101.05Z"/>
    <path class="st2" d="M1207.11,390.23c-45.39-8.93-79.91-37.32-95.03-80.51-21.88-62.49-12.98-140.11,16.56-199.48,13.42-26.97,33.02-51.06,60.14-65.5,46.67-24.86,106.42-18.13,147.31,14.98,55.76,45.16,55.94,135.96,38.62,202.66-21.16,81.47-78.08,145.45-167.59,127.84ZM1266.76,364.4c38.28-11.42,64.06-44.61,78.96-81.12,20.95-51.33,28.29-111.85,11.72-164.48-14.02-44.55-53.21-72.41-99.08-75.22-66.65-4.08-104.04,38.65-124.5,98.45-19.23,56.2-24.05,133.6,9.68,182.73,25.79,37.55,79.71,52.63,123.21,39.65Z"/>
    <path class="st3" d="M1173.6,783.54c-18.63-.94-34.17-4.37-45.87-17.42-8.97-10.01-14.77-26-13.33-40.13l11.18-110.33,15.03-123.43c2.97-24.41,10.37-48.1,31.48-58.04,18.34-8.64,37.88-7.51,56.33-.5,18.6,7.07,31.39,22.79,32.58,43.2l-1.63,34.77-28.86,226.03c-3.74,29.31-29.15,47.24-56.91,45.84ZM1171.25,758.94c21.18,2.35,38.25-9.84,41.01-31.71l30.68-242.88c1.83-14.49-3.13-27.23-14.77-34.45-12.92-8.01-28.72-10.32-43.31-5.44-11.86,3.97-19.77,14.82-21.42,27.29l-16.31,123.65-13.55,124.4c-1.19,10.92,2.59,21.12,9.2,28.32s16.27,9.45,28.47,10.81Z"/>
    <path class="st4" d="M320.15,727.86l-2.86-.26-1.07-4.85c-.21-.97,2.77.31,3,1.28l.93,3.84Z"/>
    <polygon class="st4" points="686.31 674.66 683.31 673.75 682.49 667.99 686.31 674.66"/>
    <path class="st4" d="M1592.11,852c-36.86.62-75.19-12.73-100.05-39.8-17.7-19.27-26.2-45.54-17.93-70.21s33.02-30.3,53.47-19.77c9.31,4.8,15.53,9.75,18.24,20.39l5.28,20.67c2.16,8.46,10.94,15.05,17.68,17.2,9.47,3.01,20.79.96,26.42-7.46,11.33-16.95,2.95-36.26-11.04-49.11l-45.6-41.87c-39.1-35.9-30.44-105.4,10.35-135.3,23.6-17.29,52.56-19.67,80.52-12.42,27.03,7.01,51.64,19.09,68.61,41.58,11.04,14.63,15.95,33.64,11.6,51.01-4.8,19.19-22.12,27.74-39.98,24.09-38.18-7.8-28.04-40.49-47.13-49.23-6.82-3.12-17.01-3.23-22.72,1.86-10.28,9.17-11.24,26.13-2.41,37.46,25.85,33.18,73.23,51.7,81.31,100.34,3.81,22.93-1.79,45.92-12.6,66.7-14.13,27.16-42.86,43.31-74.03,43.83Z"/>
    <path class="st4" d="M1392.3,673.28l-38.31-9.27c-5.94-1.44-12.92,1.65-13.87,7.93l-6.02,39.47c4.58,3.77,10.78,8.05,16.09,8.59l45.62,4.65c13.79,1.41,28.56,2.45,38.69,13.18,6.28,6.65,5.59,18.61,4.92,27.15-1.78,22.63-19.1,34.45-41.58,32.23-36.37-3.59-72.62-9.25-107.69-18.59-21.09-5.62-33.57-23.45-32.26-44.74,2.41-38.99,8.89-75.78,15.83-114.2,7.5-41.53,15.1-81.94,28.01-121.57,10.55-32.38,42.59-28.02,78.01-20.22l73.85,16.26c10.51,2.31,20.24,10.81,22.73,21.74,3.06,13.47.3,29.29-7.85,40.31-7.17,9.69-20.49,9.32-31.21,6.85l-57.03-13.16c-7.18-1.66-17.03,2.64-18.4,9.27l-7.39,35.85c26.81,11.25,62.32,5.17,75.13,23.64,11.44,16.5,6.53,41.05-10.36,52.36-6.73,4.51-18.67,4.28-26.91,2.28Z"/>
    <path class="st4" d="M1621.15,645.34l4.17.18.69,1.47,1.13,1.77c.05,3.13.06,4.34-.02.32l-2.6-1.17-3.36-2.56Z"/>
    <path class="st4" d="M272.48,804.55c-31.87,28.68-77.31,45.35-120.28,48.89-33.38,2.75-52.9-15.26-63.35-46.53-20.83-62.3-36.69-125.01-50.13-189.46-8.06-38.64,18.92-60.24,53.9-73.18,42.24-15.62,99.11-28.92,131.82,3.81,16.67,16.68,25.3,41.85,23.84,65.78-1.06,17.35-9.33,31.76-19.03,45.54,38.36,5.28,64.95,33.46,69.66,70.45,3.62,28.36-4.82,55.24-26.43,74.69ZM177.3,624.44c.17-11.47-5.51-25.45-18.69-28.8-15-3.81-34.01,1.05-45.42,11.9,2.19,18.76,6.73,35.59,11.82,53.73,24.47-.78,51.94-13.91,52.28-36.84ZM217.49,760.24c10.08-13.47,6.06-33.64-5.25-44.29-16.14-15.21-47.04-4.57-70.08,6.99,4.86,20.88,10.26,39.33,17.8,59.28,21.68,2.77,44.03-3.94,57.53-21.97Z"/>
    <path class="st4" d="M377.19,508.2l6.59,67.77c2.75,28.23,6.72,55.08,14.15,82.16,6.58,23.96,23.34,44.86,44.41,39.44,36.91-9.49,23.26-85.51,13.1-124.84l-18.51-71.65c-1.98-7.66-3.43-17.46-.71-24.62,5.63-14.78,19.4-22.44,33.63-25.08,21.66-4.02,37.45,8.4,42.94,28.54,14.71,53.92,26.46,107.54,28.41,163.64,2.17,62.47-16.64,117.42-80.29,133.27-37.42,9.32-77.23,1.4-102.9-28.89-16.13-19.03-26.6-41.95-33.63-66.35-15.35-53.3-23.4-107.71-25.49-162.74-.9-23.74,17.51-38.2,39.18-39.21,18.44-.86,37.05,7.33,39.11,28.55Z"/>
    <rect class="st4" x="314.45" y="718.23" width="1.41" height="1.41" transform="translate(-416.06 433.42) rotate(-45)"/>
    <path class="st0" d="M999.43,315.81l-37.47-86.06c-3.34-7.68-17.29-7.89-24.93-6.49l-1.7,75.55c-.26,11.7-4.46,25.32-14.27,32.21-14.85,10.44-39.59,9.89-53.08-2.69-10.45-9.74-11.5-26.37-11.51-40.45-.04-56.57,3.7-111.34,6.87-167.76l5.72-63.08c1.85-20.38,17.57-36.73,38.4-39.88,57.96-8.76,138.42-4.21,167.26,50.1,20.65,38.89,11.57,85.97-16.37,118.97-7.3,8.62-17.3,12.64-27.53,19.83l25.06,44.38,18.34,29.48c11.21,18.01,8.89,42.29-9.01,55.21-15.25,11-37.85,10.51-52.27-2.06-4.38-3.82-10.9-11.24-13.52-17.26ZM1006.24,128.71c3.16-15.36-.35-32.02-13.1-41.49-14.24-10.59-32.41-10.6-49.64-5.41-3.83,25.78-5.85,49.74-6.37,76.83,30.86,8.92,63.26-1.59,69.1-29.93Z"/>
    <path class="st0" d="M701.21,246c-7.21-12.69-18.73-20.58-32.15-12.59l6.7,76.39c1.03,11.74-3.1,22.7-10.31,30.25-7.48,7.83-18.18,10.37-29.48,11.05-17.31,1.05-33.35-6.62-36.57-24.61l-4.87-27.19-13.65-219.02c-1.36-21.75,8.97-39.37,29.37-46.76,72.5-26.27,176.3-21.14,191.08,61.49,8.09,45.24-4.41,81.17-41.68,108.82,14.81,21.46,29.7,41.09,46.45,60.14,14.09,16.01,19.92,37.13,7.9,56.13-8,12.64-23.69,18.18-38.5,17.65-13.78-.49-27.2-8.94-34.89-22.46l-39.38-69.28ZM696.24,165.05c19.9-6.39,31.39-22.86,29.95-43.27-1.06-14.94-8.83-29.16-23.47-34.17-14.54-4.98-29.57-3.35-44.64,3.31-.97,25.76.04,50.19,2.65,76.55,12.05,3.68,23.29,1.51,35.51-2.42Z"/>
    <path class="st0" d="M1733.76,161.31c20.14,8.39,30.04,29.93,19.51,49.99l-99.6,189.74-27.72,42.43c-10.72,16.41-29.59,23.42-48.79,17.21-12.01-3.88-24.82-10.61-32.01-21.75-6.13-9.5-9.3-23.24-8.82-34.81l3.63-86.08-29.35,42.51c-12.29,17.8-22.78,38.1-42.13,49.85-23.57,14.31-57.96,1.23-68.42-23.7-5.64-13.45-5.55-28.54-4.16-42.86l14.46-149.57,13.07-84.64c1.88-12.15,10.41-24.98,22.51-27.84,27.7-6.56,63.22,14.69,59.02,40.17l-10.57,64.18c-5.71,34.67-12.64,67.37-15.18,105.09l48.27-69.79,20.16-27.65c8.11-11.13,22.61-11.59,34.4-6.9,11.18,4.45,19.17,15.33,19.19,28.86l.12,66.19.7,48.57c4.69-4.15,7.67-7.56,10.04-12.7l56.09-121.8,17.7-30.48c2.32-4,11.32-9.01,15.64-10,11.25-2.59,21.42,1.29,32.21,5.78Z"/>
    <path class="st4" d="M1045.77,745.41c-16.56-1.75-30.22-10.02-37.19-24.07l-23.18-46.66-25.19-58.74c-6.42-14.97-12.19-28.63-22.57-42.96l.54,76.97.35,56.05c.08,12.38-7.04,25.09-18.59,29.77-13.77,5.57-31.5,4.89-43.78-3.94-9.99-7.18-13.21-20.92-13.36-33.23-.95-76.41,2.04-151.52,7.81-227.72.83-10.96,2.91-21.97,6.53-31.46,5.8-15.19,19.64-21.8,34.74-21.14,17.47.76,31.77,8.78,39.51,24.88l40.72,84.73,31.73,66.87,1.84-62.89-.29-77.65c2.71-20.34,16.48-32.93,36.96-32.2,12.5.44,26.68,2.09,34.33,13.65,5.31,8.01,7.5,19.74,7.2,30.46-2.11,74.99-6.77,148.4-14.33,222.88-3.02,29.74-13.44,59.62-43.79,56.42Z"/>
    <path class="st4" d="M668.67,710.77c2.85,24.21-14.29,40.48-36.47,41.74-20.38,1.16-36.68-10.88-39.22-32.36-9.59-81.07-14.78-161.9-15.99-243.92-.24-16.2,5.35-32.25,19.48-40.05,13.06-7.21,32.59-6.4,44.67,2.69,12.01,9.04,20.13,21.83,27.64,34.48l29.05,48.91c14.57,24.53,27.25,48.62,44.83,73.03l-13.97-140.84c-2.28-22.97,14.8-36.62,35.37-38.41,22.73-1.98,40.27,10.56,42.49,34.5,6.92,74.89,10.29,149.48,11.04,224.98l-2.68,32.95c-1.03,12.61-10.86,23.91-19.84,28.13-27.94,13.12-52.01-5.86-67.94-33.82l-60.12-105.52c-3.22-5.65-6.99-10.09-12.41-15.31l5.75,58.04,8.32,70.78Z"/>
    <path class="st0" d="M338.99,79.57c20.41.14,32,13.2,34.43,31.62l12.57,95.19,11.88,49.82c2.81,11.77,8.95,22.08,16.83,31.34,11.8,13.84,35.54,15.23,46.34-.62,16.76-24.6,2.82-88.49-7.19-122.91l-20.68-71.08c-3.51-12.06-1.31-25.65,7.66-34.21,9.01-8.6,20.75-12.22,33.46-12.74,15.63-.64,31.09,8.18,36.02,24.13,21.49,69.44,44.4,153.55,32.58,224.51-5.51,33.08-25.09,60.77-54.8,75.22-40.28,19.59-89,17.77-122.12-13.8-45.2-43.09-59.24-125.41-68.93-187.47-4.08-26.17-10.03-60.16,5.4-76.1,9.39-9.7,22.52-13,36.55-12.9Z"/>
    <path class="st0" d="M297.43,364.87c-12.58,60.58-93.39,95.31-150.97,101.05-20.84,2.08-40.45-6.52-49.46-24.86l-16.49-33.59c-23.65-60.35-44.44-120.62-60.69-183.3-5.07-19.54.7-38.07,17.11-49.86,34.08-24.48,74.6-39.24,116.93-42.11,23.2-1.57,44.17,6.51,61.03,20.94,26.68,33.11,33.38,73.89,4.9,109.56,55.11,1.98,84.73,50.76,77.64,102.17ZM159.67,248.6c9.51-11.84,7.23-29.68-2.05-40.13-12.76-14.38-42.7-7.88-60.31,7.14l16.28,55.96c17.13-1.71,34.53-8.59,46.08-22.97ZM158.61,394.52c19.39-2.59,34.69-7.58,47.96-17.85,12.83-10.96,17.43-26.45,10.93-41.17-13.81-31.29-50.38-20.86-82.17-3.11l23.28,62.14Z"/>
    <path class="st0" d="M1266.76,364.4c-43.5,12.97-97.42-2.1-123.21-39.65-33.73-49.12-28.91-126.53-9.68-182.73,20.46-59.79,57.85-102.53,124.5-98.45,45.87,2.81,85.06,30.68,99.08,75.22,16.56,52.64,9.23,113.15-11.72,164.48-14.9,36.51-40.68,69.7-78.96,81.12ZM1276.95,254.99c13.54-37.67,22.34-105.43-2.35-130.73-13.39-13.72-33.04-11.9-45.14.9-6.72,7.11-12.58,14.51-16.69,23.46-16.03,34.92-25.57,84.02-12.62,119.24,4.15,11.29,13.87,20.65,22.58,22.96,26.72,7.09,44.61-9.13,54.21-35.83Z"/>
    <path class="st4" d="M1171.25,758.94c-12.2-1.35-21.8-3.54-28.47-10.81s-10.39-17.4-9.2-28.32l13.55-124.4,16.31-123.65c1.64-12.47,9.56-23.32,21.42-27.29,14.59-4.88,30.39-2.57,43.31,5.44,11.64,7.22,16.6,19.95,14.77,34.45l-30.68,242.88c-2.76,21.87-19.83,34.06-41.01,31.71Z"/>
    <path class="st3" d="M217.49,760.24c-13.5,18.03-35.84,24.74-57.53,21.97-7.54-19.94-12.93-38.39-17.8-59.28,23.04-11.56,53.94-22.19,70.08-6.99,11.31,10.65,15.33,30.82,5.25,44.29ZM201.73,755.3c5.15-6.09,3.72-19.02-4.94-21.71-10.67-3.31-21.96.67-32.38,4.45l8.37,31.38c11.51-.82,21.35-5.15,28.94-14.12Z"/>
    <path class="st3" d="M177.3,624.44c-.34,22.93-27.8,36.05-52.28,36.84-5.09-18.14-9.64-34.97-11.82-53.73,11.4-10.85,30.42-15.72,45.42-11.9,13.18,3.35,18.86,17.33,18.69,28.8ZM155.7,637.64c3.98-2.46,4.47-15.21.55-17.51-7.07-4.15-15.2-1.62-22.53,1.44l4.58,23.49c6.4-1.82,10.83-3.36,17.4-7.42Z"/>
    <path class="st2" d="M1006.24,128.71c-5.84,28.34-38.24,38.84-69.1,29.93.51-27.1,2.54-51.05,6.37-76.83,17.23-5.19,35.39-5.17,49.64,5.41,12.74,9.47,16.26,26.13,13.1,41.49ZM978.88,143.57c13.62-8.48,14.15-28.99,1.49-37.79-5.07-3.53-13.48-3.78-20.67-3.75l-3.6,46.31c7.58-.04,15.91-.49,22.78-4.77Z"/>
    <path class="st2" d="M696.24,165.05c-12.23,3.93-23.46,6.1-35.51,2.42-2.61-26.36-3.62-50.79-2.65-76.55,15.07-6.66,30.1-8.29,44.64-3.31,14.63,5.01,22.41,19.24,23.47,34.17,1.44,20.41-10.04,36.87-29.95,43.27ZM700.66,112.56c-6.91-5.68-17.32-5.14-24.42-3.39l1.42,45.93c10.12.28,21.63-3.91,26.72-12.27,5.35-8.78,5.31-22.84-3.72-30.27Z"/>
    <path class="st2" d="M158.61,394.52l-23.28-62.14c31.79-17.74,68.36-28.17,82.17,3.11,6.5,14.72,1.9,30.21-10.93,41.17-13.28,10.27-28.57,15.26-47.96,17.85ZM170.5,381c19.28-7.79,35.08-16.12,31.31-31.26-3.59-14.42-26.36-13.91-42.82-3.23l11.52,34.49Z"/>
    <path class="st2" d="M159.67,248.6c-11.55,14.38-28.95,21.26-46.08,22.97l-16.28-55.96c17.61-15.02,47.55-21.52,60.31-7.14,9.28,10.45,11.56,28.29,2.05,40.13ZM127.81,255.22c10.01-5.59,13.8-8.61,18.94-14.9,1.57-5.72,1.07-13.84-5.29-15.57-7.21-1.96-16.09.57-21.89,3.87l8.24,26.61Z"/>
    <path class="st2" d="M1276.95,254.99c-9.6,26.71-27.5,42.92-54.21,35.83-8.71-2.31-18.43-11.67-22.58-22.96-12.96-35.22-3.42-84.32,12.62-119.24,4.11-8.95,9.98-16.36,16.69-23.46,12.09-12.8,31.75-14.62,45.14-.9,24.7,25.31,15.9,93.07,2.35,130.73ZM1270.95,171.46c-.89-17-7.28-33.6-19.69-32.17-33.63,3.87-55.17,132.03-21.41,140.07,30.87,7.34,43.16-68.54,41.1-107.9Z"/>
  </g>
  <g>
    <path class="st1" d="M888.64,63.2l-4.79,40.54c-.21,1.81-2.86,5.32-3.88,6.31-4.94,4.81-7.43-27.45-.56-52.92,5.47-20.3,24.51-31.82,44.52-28.12-2.01,14.09-31.72,3.91-35.29,34.19Z"/>
    <path class="st1" d="M601.57,120.43c-.04,1.57-2.82,5.28-3.79,5.94-5.81,3.9-8.15-29.68-6.23-51.84,1.61-18.55,17.05-33.9,36.07-31.29-1.08,12.87-24.4,7.9-25.05,34.94l-1.01,42.26Z"/>
    <path class="st1" d="M64.88,650.83c.54,2.98-.17,7.84-2.08,8.13-9.26,1.38-17.15-38.24-15.77-59.75,2.14-33.38,43.11-44.73,39.28-36.87l-3.24,6.65c-17.29,7.18-25.63,22.18-25.74,40.32l7.55,41.52Z"/>
    <path class="st1" d="M318.95,562.68c.18,2.77-.75,6.74-2.34,6.93s-5.88-2.18-6.36-4.03c-6.63-25.66-10.65-62.72,10.5-72.49,2.22-1.03,8.58,1.72,9.4,3.96-7.98,7.12-14.56,14.05-13.9,24.21l2.7,41.42Z"/>
    <path class="st1" d="M1356.56,491.65c-40.51-2.74-43.79,24.38-53.03,62.07-1.4.86-5.75,1.24-6.36-.05l-3.01-6.41c4.42-17.92,9.62-34.31,17.1-51.04,11.95-15.6,32.42-20.32,49.93-11.93.62,1.7,2.08,5.49,1.01,6.16s-4.11,1.3-5.64,1.2Z"/>
    <path class="st1" d="M1590.86,552.65c-20.09.95-36.49,13.83-45.89,28.91l-5.96.22c-8.88.33,6.21-24.74,25.51-33.87,16.81-7.96,47.75-9.04,53.49-2.88,1.08,1.16-.45,6.36-1.96,6.43l-25.19,1.2Z"/>
    <path class="st1" d="M1430.26,165.95c-.35,1.93-4.17,6.61-5.08,5.5l-4.58-5.58c1.73-20.34,4.38-39.72,10.3-58.6,5.14-9.37,12.93-17.38,23.21-16.43,1.39.13,6.78,2.71,6.04,3.93-3.88,6.44-18.49,8.05-21.3,23.6l-8.58,47.57Z"/>
    <path class="st1" d="M1554.53,210.81l-18.32,24.06c-.75.99-3.79,2.72-4.76,3.22-5.98,3.11-.35-16.89,14.87-33.71,10.71-11.84,24.91-13.86,28.27-7.27,3.9,7.65-14.7,6.67-20.06,13.7Z"/>
    <path class="st1" d="M884.67,498.69c-.33,2.45-1.72,5.67-2.97,6.36-1.57.87-6.36-2.55-6.25-4.37l2.49-42.34c.93-15.77,18.31-38.28,26.25-28.86,5.08,6.01-11.65,11.43-13.38,24.13l-6.14,45.08Z"/>
    <path class="st1" d="M595.1,520.66c-.08,2.48-1.3,8.47-2.85,7.72l-7.02-3.4c-1.28-21.31-1.1-39.74.59-60.84,4.55-13.86,11.53-24.29,21.37-19.95,1.48.65,1.2,4.84.62,6.51-5.18,5.76-10.96,12.77-11.21,20.82l-1.5,49.15Z"/>
    <path class="st1" d="M48.58,257.5c.57,2.07,1.02,5.75-.13,6.29-8.78,4.06-20.8-32.46-20.09-55.82.53-17.43,12.2-29.85,27.35-36.01l4.57-1.86c.98-.4,3.78,2.22,3.24,3.13l-3.25,5.4c-16.51,8.68-23.44,24.02-21.76,42.11l10.06,36.78Z"/>
    <path class="st1" d="M313.92,168.47c.12,1.78-4.5,5.3-5.42,4.34-8.32-8.74-9.94-40.21-8.23-56.93,1.35-13.19,11.89-26.03,25.12-20.66-7.61,9.42-15.38,17.46-14.59,28.74l3.12,44.51Z"/>
    <path class="st1" d="M1255.46,64.86c-35.75-3.16-66.35,15.47-81.98,45.79l-5.81,3.57c-6.72,4.13-.92-24.38,25.94-42.94,18.22-13.95,39.63-18.62,61.94-14.7l3.68,2.85c1.12.87-1.34,4-3.77,5.44Z"/>
    <path class="st1" d="M1175.1,519.72c-.37,2.51-2.26,6.04-3.75,6.94-10.6,6.35-6.48-31.02.02-53.97,3.23-11.4,10.25-18.68,21.49-21.12,3.18-.69,8.72,2.94,8.3,6.07-9.77,5.31-18.75,12.64-20.46,24.2l-5.6,37.89Z"/>
  </g>
</svg>